<svg width="343" height="322" viewBox="0 0 343 322" fill="none" xmlns="http://www.w3.org/2000/svg">
<path d="M82 170.5C82 156.417 93.4167 145 107.5 145V145C121.583 145 133 156.417 133 170.5V203H82V170.5Z" fill="#192F44"/>
<path d="M82 214H133V300V300C104.833 300 82 277.167 82 249V214Z" fill="#1DA1D6"/>
<path d="M210 167H261V249C261 277.167 238.167 300 210 300V300V167Z" fill="#192F44"/>
<path d="M146 214H197V296.5C197 310.583 185.583 322 171.5 322V322C157.417 322 146 310.583 146 296.5V214Z" fill="#192F44"/>
<path d="M146 134.5C146 120.417 157.417 109 171.5 109V109C185.583 109 197 120.417 197 134.5V201H146V134.5Z" fill="#192F44"/>
<path d="M210 109.5C210 95.4167 221.417 84 235.5 84V84C249.583 84 261 95.4167 261 109.5V155H210V109.5Z" fill="#1DA1D6"/>
<path d="M275 122L343 158.5V175L275 140V122Z" fill="#192F44"/>
<path d="M275 194.5L338.5 159L342.5 175L275 212.5V194.5Z" fill="#192F44"/>
<circle cx="31" cy="156" r="31" fill="#192F44"/>
<circle cx="236" cy="31" r="31" fill="#192F44"/>
<path d="M51 132L206.5 40L215 53L59.5 145.5L51 132Z" fill="#192F44"/>
</svg>
